<?xml version="1.0" encoding="iso-8859-1"?>
<!-- Generator: Adobe Illustrator 19.0.0, SVG Export Plug-In . SVG Version: 6.00 Build 0)  -->
<svg version="1.1" id="Layer_1" xmlns="http://www.w3.org/2000/svg" xmlns:xlink="http://www.w3.org/1999/xlink" x="0px" y="0px"
	 viewBox="0 0 512.001 512.001" style="enable-background:new 0 0 512.001 512.001;" xml:space="preserve">
<g>
	<g>
		<path d="M460.829,163.304l-42.319-29.791c-10.667-7.51-23.202-11.478-36.248-11.478h-53.836V35.878
			c0-5.633-4.566-10.199-10.199-10.199h-52.028V10.199C266.199,4.566,261.633,0,256,0c-5.633,0-10.199,4.566-10.199,10.199v15.479
			h-52.029c-5.633,0-10.199,4.566-10.199,10.199v86.156H129.75c-13.043,0-25.574,3.968-36.24,11.474l-42.338,29.795
			c-4.606,3.241-5.713,9.605-2.47,14.211c1.986,2.822,5.142,4.331,8.35,4.331c2.028,0,4.077-0.604,5.862-1.859l42.338-29.795
			c7.21-5.075,15.682-7.756,24.5-7.756h53.822v178.042h-9.507c-15.346,0-27.831,12.485-27.831,27.831s12.485,27.831,27.831,27.831
			h9.507v82.278h-44.769c-23.924,0-43.387,19.463-43.387,43.387c0,5.633,4.566,10.199,10.199,10.199h300.769
			c5.633,0,10.199-4.566,10.199-10.199c0-23.924-19.463-43.387-43.387-43.387h-44.769v-82.278h9.507
			c15.346,0,27.831-12.485,27.831-27.831s-12.485-27.831-27.831-27.831h-9.507V142.432h53.835c8.819,0,17.294,2.683,24.506,7.761
			l42.319,29.791c4.607,3.242,10.968,2.137,14.212-2.469C466.54,172.908,465.435,166.546,460.829,163.304z M266.199,46.077h41.83
			v75.956h-41.83V46.077z M203.971,46.077h41.83v75.956h-41.83V46.077z M203.971,142.432h104.057v178.042H203.971V142.432z
			 M373.196,478.812c9.016,0,16.836,5.216,20.6,12.79H118.203c3.765-7.574,11.584-12.79,20.6-12.79H373.196z M308.028,458.413
			H203.971v-82.278h104.057V458.413z M337.934,340.873c4.098,0,7.432,3.334,7.432,7.432c0,4.098-3.334,7.432-7.432,7.432H174.066
			c-4.098,0-7.432-3.334-7.432-7.432s3.334-7.432,7.432-7.432H337.934z"/>
	</g>
</g>
<g>
</g>
<g>
</g>
<g>
</g>
<g>
</g>
<g>
</g>
<g>
</g>
<g>
</g>
<g>
</g>
<g>
</g>
<g>
</g>
<g>
</g>
<g>
</g>
<g>
</g>
<g>
</g>
<g>
</g>
</svg>
